<svg xmlns="http://www.w3.org/2000/svg" width="315" height="315" viewBox="0 0 83.344 83.344">
    <g data-name="body" fill="{{colors.primary.default.hex}}">
        <path
            d="M166.012 213.245c0 8.139-4.069 16.278-32.554 16.278s-32.555-8.14-32.555-16.278c0-12.208 8.139-20.346 32.555-20.346s32.554 8.138 32.554 20.346"
            style="fill-opacity:1;stroke:none"
            transform="translate(-5.76 -6.822)scale(.35677)" />
        <path
            d="M100.903 42.333c16.277 0 81.387 48.832 81.387 89.526 0 27.465-12.873 39.482-24.139 44.74-8.534 3.984-10.898-1.328-6.152-9.505 3.19-5.494 5.875-12.143 5.875-18.958 0-12.208-4.07-20.347-12.208-28.485-8.139-8.139-18.593-12.208-24.416-12.208-8.139 0-12.208 23.921-12.208 36.624 0 10.121 3.02 19.236 6.057 25.84 2.864 6.23.467 10.508-5.956 8.146-7.016-2.58-15.43-7.673-20.448-17.71-8.139-16.276-4.07-39.701-4.07-61.039 0-32.555 0-56.97 16.278-56.97"
            style="display:inline;fill-opacity:1;stroke:none"
            transform="translate(-5.76 -6.822)scale(.35677)" />
    </g>
</svg>
